FFmpeg version SVN-r25716, Copyright (c) 2000-2010 the FFmpeg developers  built on Nov 10 2010 12:23:18 with gcc 4.1.2 20080704 (Red Hat 4.1.2-48)  configuration: --enable-libmp3lame --enable-shared --disable-mmx --arch=x86_64  libavutil     50.33. 0 / 50.33. 0  libavcore      0.12. 1 /  0.12. 1  libavcodec    52.94. 4 / 52.94. 4  libavformat   52.84. 0 / 52.84. 0  libavdevice   52. 2. 2 / 52. 2. 2  libavfilter    1.59. 0 /  1.59. 0  libswscale     0.12. 0 /  0.12. 0Input #0, avi, from '/RAID10/data/converted_video_files/47519.avi':  Duration: 00:00:13.40, start: 0.000000, bitrate: 188719 kb/s    Stream #0.0: Video: msvideo1, rgb555le, 1024x1024, 20 tbr, 20 tbn, 20 tbc[buffer @ 0x1a235050] w:1024 h:1024 pixfmt:rgb555le[ffsink @ 0x1a2352c0] auto-inserting filter 'auto-inserted scaler 0' between the filter 'src' and the filter 'out'[scale @ 0x1a247250] w:1024 h:1024 fmt:rgb555le -> w:1024 h:1024 fmt:yuv420p flags:0x4Output #0, flv, to '/RAID10/data/converted_video_files/47519.flv':  Metadata:    encoder         : Lavf52.84.0    Stream #0.0: Video: flv, yuv420p, 1024x1024, q=2-31, 600 kb/s, 1k tbn, 24 tbcStream mapping:  Stream #0.0 -> #0.0Press [q] to stop encodingframe=    6 fps=  0 q=7.0 size=     771kB time=0.29 bitrate=21616.4kbits/s    frame=   14 fps= 13 q=26.0 size=     841kB time=0.71 bitrate=9735.6kbits/s    frame=   24 fps= 14 q=31.0 size=     874kB time=1.17 bitrate=6132.1kbits/s    frame=   32 fps= 15 q=31.0 size=     904kB time=1.58 bitrate=4680.6kbits/s    frame=   41 fps= 15 q=31.0 size=     910kB time=2.04 bitrate=3651.6kbits/s    frame=   52 fps= 16 q=31.0 size=     942kB time=2.58 bitrate=2986.5kbits/s    frame=   62 fps= 16 q=31.0 size=     974kB time=3.08 bitrate=2588.2kbits/s    frame=   71 fps= 17 q=31.0 size=    1005kB time=3.54 bitrate=2325.9kbits/s    frame=   80 fps= 17 q=31.0 size=    1037kB time=4.00 bitrate=2124.4kbits/s    frame=   86 fps= 16 q=31.0 size=    1041kB time=4.29 bitrate=1987.7kbits/s    frame=   94 fps= 16 q=31.0 size=    1072kB time=4.71 bitrate=1864.7kbits/s    frame=  102 fps= 16 q=24.8 size=    1103kB time=5.08 bitrate=1776.7kbits/s    frame=  112 fps= 16 q=31.0 size=    1108kB time=5.58 bitrate=1626.2kbits/s    frame=  122 fps= 17 q=31.0 size=    1144kB time=6.08 bitrate=1540.1kbits/s    frame=  130 fps= 17 q=31.0 size=    1175kB time=6.50 bitrate=1480.5kbits/s    frame=  138 fps= 16 q=24.8 size=    1205kB time=6.88 bitrate=1436.3kbits/s    frame=  146 fps= 16 q=31.0 size=    1210kB time=7.29 bitrate=1359.6kbits/s    frame=  156 fps= 17 q=31.0 size=    1242kB time=7.79 bitrate=1305.3kbits/s    frame=  166 fps= 17 q=31.0 size=    1273kB time=8.29 bitrate=1257.8kbits/s    frame=  176 fps= 17 q=31.0 size=    1305kB time=8.79 bitrate=1216.3kbits/s    frame=  187 fps= 17 q=31.0 size=    1338kB time=9.33 bitrate=1174.0kbits/s    frame=  198 fps= 17 q=24.8 size=    1370kB time=9.88 bitrate=1136.5kbits/s    frame=  209 fps= 17 q=31.0 size=    1376kB time=10.46 bitrate=1077.9kbits/s    frame=  218 fps= 17 q=31.0 size=    1407kB time=10.87 bitrate=1060.2kbits/s    frame=  228 fps= 17 q=31.0 size=    1439kB time=11.38 bitrate=1036.2kbits/s    frame=  239 fps= 18 q=31.0 size=    1471kB time=11.96 bitrate=1007.6kbits/s    frame=  249 fps= 18 q=31.0 size=    1503kB time=12.46 bitrate= 988.0kbits/s    frame=  257 fps= 18 q=31.0 size=    1507kB time=12.83 bitrate= 962.1kbits/s    frame=  268 fps= 18 q=31.0 size=    1539kB time=13.38 bitrate= 942.6kbits/s    frame=  268 fps= 18 q=31.0 Lsize=    1539kB time=13.38 bitrate= 942.6kbits/s    video:1535kB audio:0kB global headers:0kB muxing overhead 0.286228%